<svg width="500" height="500" viewBox="0 0 500 500" fill="none" xmlns="http://www.w3.org/2000/svg">
<g clip-path="url(#clip0_446_4477)">
<path d="M8.58819 114.007C7.15878 108.672 10.3246 103.189 15.6593 101.759L330.571 17.3792L385.772 2.58801C391.107 1.15859 396.59 4.32462 398.02 9.65928C402.565 26.6209 406.888 42.7569 411.043 58.2633C441.893 173.396 463.441 253.816 497.185 379.749C498.614 385.083 495.455 390.59 490.12 392.019L120.007 491.191C114.672 492.62 109.189 489.454 107.76 484.12L8.58819 114.007Z" fill="#D9D9D9"/>
<rect x="179.227" y="344.982" width="18.7696" height="106.361" rx="4" transform="rotate(15 179.227 344.982)" fill="#555555"/>
<rect x="161.785" y="371.398" width="37.5393" height="106.361" rx="4" transform="rotate(15 161.785 371.398)" fill="#0D43CC"/>
<circle cx="227.727" cy="195.398" r="159.542" transform="rotate(15 227.727 195.398)" fill="#8E8E8E"/>
<circle cx="227.729" cy="195.398" r="142.024" transform="rotate(15 227.729 195.398)" fill="#D9D9D9"/>
<path d="M214.156 224.31V222.333C214.195 215.552 214.796 210.146 215.958 206.116C217.16 202.086 218.903 198.83 221.19 196.35C223.476 193.87 226.228 191.623 229.444 189.608C231.847 188.057 233.997 186.449 235.896 184.783C237.795 183.117 239.306 181.276 240.43 179.261C241.554 177.207 242.116 174.921 242.116 172.402C242.116 169.728 241.476 167.383 240.198 165.368C238.919 163.353 237.194 161.803 235.024 160.718C232.893 159.633 230.529 159.091 227.933 159.091C225.414 159.091 223.031 159.652 220.783 160.776C218.535 161.861 216.695 163.489 215.261 165.659C213.827 167.79 213.052 170.445 212.936 173.622H189.22C189.413 165.872 191.273 159.478 194.8 154.44C198.326 149.364 202.996 145.586 208.809 143.105C214.621 140.587 221.035 139.327 228.049 139.327C235.76 139.327 242.581 140.606 248.51 143.164C254.439 145.682 259.089 149.344 262.46 154.15C265.832 158.955 267.518 164.748 267.518 171.53C267.518 176.064 266.762 180.094 265.251 183.62C263.778 187.108 261.705 190.208 259.031 192.921C256.357 195.595 253.199 198.017 249.556 200.187C246.495 202.008 243.976 203.907 241.999 205.883C240.062 207.86 238.609 210.146 237.64 212.742C236.71 215.339 236.225 218.536 236.187 222.333V224.31H214.156ZM225.666 261.511C221.79 261.511 218.477 260.155 215.726 257.442C213.013 254.691 211.676 251.397 211.715 247.561C211.676 243.763 213.013 240.508 215.726 237.795C218.477 235.083 221.79 233.726 225.666 233.726C229.347 233.726 232.583 235.083 235.373 237.795C238.163 240.508 239.578 243.763 239.616 247.561C239.578 250.118 238.899 252.463 237.582 254.594C236.303 256.687 234.617 258.372 232.525 259.651C230.432 260.891 228.146 261.511 225.666 261.511Z" fill="#555555"/>
</g>
<defs>
<clipPath id="clip0_446_4477">
<rect width="500" height="500" fill="white"/>
</clipPath>
</defs>
</svg>
