<svg width="179" height="76" viewBox="0 0 179 76" fill="none" xmlns="http://www.w3.org/2000/svg">
<path d="M177.117 56.8609C162.427 72.4004 135.915 74.1577 114.156 74.324C92.3801 74.4905 65.9828 67.9079 51.3462 53.0164C45.1317 46.6936 41.3409 38.4672 40.0629 30.3077C39.4406 26.3344 39.1063 20.3293 43.824 17.7642C57.0827 10.5554 64.7956 29.9876 61.8773 38.0293C57.5526 49.9464 40.3107 55.4718 27.6513 50.866C15.2395 46.3503 12.2614 38.0568 10.8768 27.0823C10.0728 20.7091 10.5759 14.5293 10.5759 8.18555" stroke="white" stroke-width="3.05833" stroke-linecap="round"/>
<path d="M22.082 11.1196C19.8469 10.073 9.31265 1.01266 8.76776 1.73641C6.23851 5.0959 4.16506 8.8377 1.77212 12.2925" stroke="white" stroke-width="3.05833" stroke-linecap="round"/>
</svg>
